<svg width="24" height="24" viewBox="0 0 24 24" fill="none" xmlns="http://www.w3.org/2000/svg">
<path d="M14.485 19.7371L9 17.8231L5.098 19.3321C4.958 19.3881 4.82433 19.4057 4.697 19.3851C4.569 19.3651 4.451 19.3211 4.343 19.2531C4.235 19.1851 4.151 19.0937 4.091 18.9791C4.031 18.8644 4.00067 18.7324 4 18.5831V6.41006C4 6.22206 4.04333 6.05573 4.13 5.91106C4.21667 5.7664 4.34267 5.6654 4.508 5.60806L8.465 4.26406C8.54767 4.23073 8.63333 4.20573 8.722 4.18906C8.81133 4.1724 8.904 4.16406 9 4.16406C9.096 4.16406 9.18833 4.1724 9.277 4.18906C9.36567 4.20573 9.45133 4.23073 9.534 4.26406L15 6.17706L18.902 4.66906C19.042 4.61306 19.1757 4.59506 19.303 4.61506C19.4303 4.63506 19.5483 4.67906 19.657 4.74706C19.7643 4.81506 19.8483 4.9064 19.909 5.02106C19.9697 5.13573 20 5.26773 20 5.41706V17.6761C20 17.8654 19.947 18.0304 19.841 18.1711C19.7357 18.3124 19.5937 18.4117 19.415 18.4691L15.515 19.7561C15.4283 19.7894 15.343 19.8111 15.259 19.8211C15.1757 19.8311 15.089 19.8361 14.999 19.8361C14.9083 19.8361 14.8217 19.8281 14.739 19.8121C14.6563 19.7961 14.5723 19.7711 14.485 19.7371ZM14.5 18.7041V7.00406L9.5 5.25806V16.9581L14.5 18.7041ZM15.5 18.7041L19 17.5501V5.70006L15.5 7.00406V18.7041ZM5 18.3001L8.5 16.9581V5.25806L5 6.45006V18.3001Z" fill="white"/>
</svg>
