<svg width="24" height="24" viewBox="0 0 24 24" fill="none" xmlns="http://www.w3.org/2000/svg">
<path d="M6.67602 8.8865V7.58C6.67602 6.1664 7.23757 4.81069 8.23714 3.81112C9.23671 2.81155 10.5924 2.25 12.006 2.25C13.4196 2.25 14.7753 2.81155 15.7749 3.81112C16.7745 4.81069 17.336 6.1664 17.336 7.58V8.8865M16.5275 21.75H7.47252C6.98218 21.75 6.50893 21.5698 6.1427 21.2438C5.77647 20.9178 5.54277 20.4685 5.48602 19.9815L4.19202 8.8865H19.808L18.514 19.9815C18.4573 20.4685 18.2236 20.9178 17.8573 21.2438C17.4911 21.5698 17.0179 21.75 16.5275 21.75Z" stroke="white" stroke-width="0.5" stroke-linecap="round" stroke-linejoin="round"/>
<path d="M9.76445 18.4914C10.3415 18.9239 10.9185 19.0679 12.072 19.0679H12.649C13.1462 19.0679 13.6231 18.8703 13.9748 18.5187C14.3264 18.1671 14.524 17.6902 14.524 17.1929C14.524 16.6956 14.3264 16.2187 13.9748 15.867C13.6231 15.5154 13.1462 15.3179 12.649 15.3179H11.351C10.8537 15.3179 10.3768 15.1203 10.0251 14.7687C9.6735 14.4171 9.47595 13.9402 9.47595 13.4429C9.47595 12.9456 9.6735 12.4687 10.0251 12.117C10.3768 11.7654 10.8537 11.5679 11.351 11.5679H11.928C13.226 11.5679 13.803 11.7124 14.2355 12.1449" stroke="white" stroke-width="0.5" stroke-linecap="round" stroke-linejoin="round"/>
</svg>
