<svg width="24" height="24" viewBox="0 0 24 24" fill="none" xmlns="http://www.w3.org/2000/svg">
<path d="M13.5215 6.47109C11.8065 5.02259 5.09649 5.34759 5.09649 5.34759L4.85999 21.6726C4.85999 21.6726 13.7875 21.7396 16.5365 21.6726C19.2855 21.6056 21.207 19.4186 21.2365 17.7336C21.266 16.0486 21.2365 5.64359 21.2365 5.64359C17.8075 5.22909 15.2655 5.55459 13.5215 6.47109Z" stroke="white" stroke-width="0.5" stroke-linecap="round" stroke-linejoin="round"/>
<path d="M9.76547 15.5741C11.6918 15.5741 13.2535 14.0125 13.2535 12.0861C13.2535 10.1598 11.6918 8.59814 9.76547 8.59814C7.8391 8.59814 6.27747 10.1598 6.27747 12.0861C6.27747 14.0125 7.8391 15.5741 9.76547 15.5741Z" stroke="white" stroke-width="0.5" stroke-linecap="round" stroke-linejoin="round"/>
<path d="M16.0215 14.665C16.7211 14.9825 17.5129 15.0321 18.2466 14.8044C18.9804 14.5768 19.605 14.0877 20.0021 13.43C20.3991 12.7723 20.5409 11.9917 20.4006 11.2364C20.2602 10.4811 19.8475 9.80355 19.2407 9.33236C18.6339 8.86117 17.8753 8.62912 17.1087 8.68022C16.3422 8.73132 15.6211 9.06203 15.0822 9.60959C14.5433 10.1572 14.2242 10.8835 14.1853 11.6507C14.1465 12.418 14.3907 13.1728 14.8715 13.772M5.0965 5.34752L2.8495 6.97353L2.75 19.6845L4.86 21.673M16.8475 5.54753C16.6963 4.65194 16.2372 3.83726 15.5493 3.24417C14.8614 2.65108 13.988 2.31681 13.0799 2.29908C12.1719 2.28136 11.2861 2.58129 10.5756 3.14709C9.86512 3.71288 9.37451 4.50902 9.1885 5.39802" stroke="white" stroke-width="0.5" stroke-linecap="round" stroke-linejoin="round"/>
<path d="M10.262 10.0036C10.355 10.2777 10.3468 10.5761 10.2388 10.8447C10.1309 11.1133 9.93034 11.3345 9.6735 11.468C9.41666 11.6016 9.12049 11.6389 8.83858 11.573C8.55667 11.5072 8.30764 11.3426 8.13654 11.1091C7.91408 11.5143 7.82782 11.9803 7.89052 12.4384C7.95321 12.8964 8.16153 13.3221 8.48472 13.6526C8.80791 13.9832 9.22882 14.2011 9.68531 14.2741C10.1418 14.3471 10.6097 14.2713 11.0198 14.0581C11.43 13.8448 11.7607 13.5053 11.9631 13.0896C12.1655 12.674 12.2289 12.2043 12.1439 11.7499C12.0589 11.2955 11.83 10.8804 11.4911 10.5661C11.1521 10.2517 10.7211 10.0547 10.2615 10.0041M17.198 9.83105C17.3163 10.0864 17.3394 10.3755 17.2633 10.6464C17.1871 10.9173 17.0167 11.152 16.7827 11.3083C16.5487 11.4645 16.2666 11.5321 15.9872 11.4987C15.7078 11.4652 15.4496 11.3331 15.259 11.1261C15.087 11.5417 15.0532 12.0016 15.1625 12.4379C15.2719 12.8742 15.5186 13.2637 15.8663 13.5491C16.214 13.8344 16.6443 14.0004 17.0935 14.0225C17.5428 14.0446 17.9872 13.9217 18.3613 13.6719C18.7353 13.4221 19.0191 13.0586 19.1708 12.6352C19.3225 12.2117 19.334 11.7507 19.2036 11.3202C19.0732 10.8897 18.8079 10.5126 18.4467 10.2444C18.0856 9.97628 17.6478 9.83136 17.198 9.83105ZM12.1805 15.7091C12.1805 14.3006 13.196 13.7281 14.541 13.7281C15.7385 13.7281 16.4185 15.3541 16.4185 15.3541C15.2416 15.8546 13.9723 16.1015 12.6935 16.0786C13.4307 16.7626 14.3587 17.206 15.354 17.3496C15.354 17.3496 14.9405 17.6596 13.5215 17.6596C12.3685 17.6601 12.1805 16.4336 12.1805 15.7091Z" stroke="white" stroke-width="0.5" stroke-linecap="round" stroke-linejoin="round"/>
<path d="M15.1585 15.7847C15.1889 16.2896 15.1455 16.7963 15.0295 17.2887" stroke="white" stroke-width="0.5" stroke-linecap="round" stroke-linejoin="round"/>
</svg>
